<?xml version="1.0" standalone="no"?>
<!DOCTYPE svg PUBLIC "-//W3C//DTD SVG 1.1//EN" "http://www.w3.org/Graphics/SVG/1.1/DTD/svg11.dtd" >
<svg xmlns="http://www.w3.org/2000/svg">
<metadata>
This is a custom SVG font generated by IcoMoon.
<iconset grid="23"></iconset>
</metadata>
<defs>
<font id="arrows" horiz-adv-x="736" >
<font-face units-per-em="736" ascent="704" descent="-32" />
<missing-glyph horiz-adv-x="736" />
<glyph class="hidden" unicode="&#xf000;" d="M0,704L 736 -32L0 -32 z" horiz-adv-x="0" />
<glyph unicode="&#x21;" d="M 308.185,108.709c0-6.56-6.572-11.877-14.291-11.877l0,0c-7.719,0-14.291,5.317-14.291,11.877l0,153.622 c0,6.56, 6.572,11.877, 14.291,11.877
	l0,0c 7.719,0, 14.291-5.317, 14.291-11.877L 308.185,108.709 zM 585.605,50.632L 585.605,317.716 c0,27.283-7.985,48.63-23.734,63.448c-22.595,21.26-53.080,20.79-57.283,20.618l-28.268,0 L 476.32,547.006 
	l-0.002,0.239c-0.034,1.61-1.068,39.906-24.424,78.471C 430.262,661.428, 384.893,704, 291.581,704c-90.477,0-135.677-46.579-157.661-85.651
	c-23.505-41.775-25.716-83.126-25.8-84.867l-0.013-131.702L 81.48,401.782 c-4.204,0.177-34.663,0.638-57.243-20.606
	c-15.749-14.818-23.736-36.168-23.736-63.459L 0.504,50.637 c-0.16-4.168-0.726-38.036, 21.336-61.314c 13.411-14.151, 31.971-21.325, 55.165-21.325
	l 216.051,0 L 509.068-32.002 c 23.19,0, 41.752,7.176, 55.171,21.324C 586.312,12.6, 585.763,46.472, 585.605,50.632z M 131.646,532.596
	c 0.199,3.187, 2.84,38.759, 22.789,74.211C 181.935,655.68, 228.077,680.461, 291.581,680.461c 65.691,0, 112.685-22.248, 139.682-66.129
	c 19.971-32.463, 21.453-65.716, 21.517-67.493l0-145.058 l-159.725,0 l-161.408,0 L 131.646,532.596 z M 547.16,5.521c-8.798-9.28-21.615-13.982-38.092-13.982
	L 293.054-8.461 l-216.051,0 c-16.414,0-29.194,4.667-37.981,13.876c-16.084,16.852-15.008,44.106-14.996,44.342l 0.017,0.315L 24.044,317.716 
	c0,20.445, 5.442,35.98, 16.177,46.174c 16.244,15.427, 40.088,14.38, 40.273,14.375l 0.359-0.022l 212.205,0 L 504.864,378.243 l 0.716,0.022
	c 0.236,0.015, 23.956,1.005, 40.162-14.243c 10.833-10.195, 16.325-25.773, 16.325-46.306l0-267.331 l 0.017-0.623
	C 562.099,49.492, 563.070,22.299, 547.16,5.521z" horiz-adv-x="586.105" data-tags="icons-32" />
<glyph unicode="&#x24;" d="M 296.954,345.438c-72.972,0-132.134-59.161-132.134-132.134c0-72.951, 59.161-132.112, 132.134-132.112
				c 72.951,0, 132.112,59.161, 132.112,132.112C 429.023,286.298, 369.905,345.438, 296.954,345.438z M 296.954,161.611c-28.552,0-51.715,23.162-51.715,51.715
				s 23.162,51.715, 51.715,51.715s 51.715-23.162, 51.715-51.715S 325.507,161.611, 296.954,161.611z M 532.842,704L 51.607,704 C 20.348,704,-5,678.651,-5,647.393l0-622.764 
				c0-31.28, 25.349-56.607, 56.607-56.607l 481.214,0 c 31.28,0, 56.607,25.349, 56.607,56.607L 589.428,647.393 C 589.449,678.651, 564.122,704, 532.842,704z M 532.842,71.776
				c0-31.258-15.911-47.169-47.191-47.169L 98.776,24.607 c-31.258,0-47.169,15.911-47.169,47.169L 51.607,600.202 c0,31.28, 15.911,47.191, 47.169,47.191l 386.855,0 
				c 31.28,0, 47.191-15.911, 47.191-47.191L 532.821,71.776 z" horiz-adv-x="584.471" data-tags="icons-29" />
<glyph unicode="&#x25;" d="M 256.595,192.695l-46.476,0 c-14.523,0-23.247-8.724-23.247-23.247s 8.724-23.247, 23.247-23.247l 46.476,0 
				c 14.54,0, 23.247,8.724, 23.247,23.247S 271.135,192.695, 256.595,192.695z M 148.151,122.955l-46.476,0 c-14.54,0-23.247-8.724-23.247-23.247
				s 8.706-23.247, 23.247-23.247l 46.476,0 c 14.523,0, 23.247,8.724, 23.247,23.247S 162.674,122.955, 148.151,122.955z M 148.151,262.4l-46.476,0 
				c-14.54,0-23.247-8.724-23.247-23.247s 8.706-23.247, 23.247-23.247l 46.476,0 c 14.523,0, 23.247,8.724, 23.247,23.247S 162.674,262.4, 148.151,262.4z
				 M 148.151,192.695l-46.476,0 c-14.54,0-23.247-8.724-23.247-23.247s 8.706-23.247, 23.247-23.247l 46.476,0 c 14.523,0, 23.247,8.724, 23.247,23.247
				S 162.674,192.695, 148.151,192.695z M 256.595,122.955l-46.476,0 c-14.523,0-23.247-8.724-23.247-23.247s 8.724-23.247, 23.247-23.247l 46.476,0 
				c 14.54,0, 23.247,8.724, 23.247,23.247S 271.135,122.955, 256.595,122.955z M 442.551,704c-12.835,0-23.247-10.394-23.247-23.247l0-103.202 
				c-17.808,11.381-39.277,17.951-61.986,17.951L 101.658,595.521 C 43.532,595.521, 0.951,552.94, 0.951,494.814l0-426.090 c0-58.108, 42.58-100.724, 100.706-100.724l 255.643,0 
				c 58.126,0, 108.479,42.616, 108.479,100.724L 465.78,479.323 l0,15.492 L 465.78,680.753 C 465.78,693.606, 455.369,704, 442.551,704z M 419.305,115.218
				c0-77.1-34.718-100.724-116.216-100.724L 155.888,14.494 c-77.118,0-108.461,20.698-108.461,100.724L 47.427,448.339 c0,77.1, 26.945,100.706, 108.461,100.706l 147.2,0 
				c 80.044,0, 116.216-22.134, 116.216-100.706L 419.305,115.218 z M 256.595,262.4l-46.476,0 c-14.523,0-23.247-8.724-23.247-23.247s 8.724-23.247, 23.247-23.247l 46.476,0 
				c 14.54,0, 23.247,8.724, 23.247,23.247S 271.135,262.4, 256.595,262.4z M 365.074,262.4l-46.476,0 c-14.54,0-23.247-8.724-23.247-23.247
				s 8.706-23.247, 23.247-23.247l 46.476,0 c 14.523,0, 23.247,8.724, 23.247,23.247S 379.596,262.4, 365.074,262.4z M 365.074,122.955l-46.476,0 
				c-14.54,0-23.247-8.724-23.247-23.247s 8.706-23.247, 23.247-23.247l 46.476,0 c 14.523,0, 23.247,8.724, 23.247,23.247S 379.596,122.955, 365.074,122.955z
				 M 365.074,192.695l-46.476,0 c-14.54,0-23.247-8.724-23.247-23.247s 8.706-23.247, 23.247-23.247l 46.476,0 c 14.523,0, 23.247,8.724, 23.247,23.247
				S 379.596,192.695, 365.074,192.695z" horiz-adv-x="466.732" data-tags="icons-28" />
<glyph unicode="&#x26;" d="M 271.619,443.281c 42.355,0, 76.702,34.347, 76.702,76.719c0,42.355-34.347,76.702-76.702,76.702
				c-42.373,0-76.702-34.347-76.702-76.702C 194.9,477.645, 229.246,443.281, 271.619,443.281z M 271.619,581.368c 33.874,0, 61.351-27.477, 61.351-61.351
				c0-33.891-27.477-61.368-61.351-61.368s-61.368,27.477-61.368,61.368C 210.251,553.909, 237.746,581.368, 271.619,581.368z M 271.619,382
				c-88.916,0-160.991-72.075-160.991-160.991s 72.075-160.991, 160.991-160.991s 160.974,72.075, 160.974,160.991S 360.535,382, 271.619,382z
				 M 271.619,75.333c-80.452,0-145.675,65.224-145.675,145.675s 65.224,145.675, 145.675,145.675c 80.452,0, 145.675-65.224, 145.675-145.675
				S 352.071,75.333, 271.619,75.333z M 271.619,267.745c-25.813,0-46.736-20.923-46.736-46.736s 20.923-46.736, 46.736-46.736
				s 46.718,20.923, 46.718,46.736S 297.432,267.745, 271.619,267.745z M 501.619,704L 41.619,704 C 16.227,704,-4.381,683.392,-4.381,658l0-644 
				c0-25.392, 20.608-46, 46-46l 460,0 c 25.41,0, 46,20.626, 46,46L 547.602,658 C 547.602,683.392, 527.029,704, 501.619,704z M 501.619,52.342
				c0-25.41-12.933-38.342-38.325-38.342L 79.961,14 c-25.41,0-38.342,12.933-38.342,38.342L 41.619,619.675 c0,25.392, 12.933,38.325, 38.342,38.325l 383.333,0 
				c 25.392,0, 38.325-12.933, 38.325-38.325L 501.619,52.342 z" horiz-adv-x="543.238" data-tags="icons-27" />
<glyph unicode="&#x27;" d="M 327.993,128.991c-19.066,0-34.487-15.438-34.487-34.487s 15.438-34.504, 34.487-34.504c 19.066,0, 34.504,15.456, 34.504,34.504
				S 347.077,128.991, 327.993,128.991z M 623.182,704L 25.182,704 C 6.011,704,-5.485,692.504,-5.485,673.333l0-674.667 c0-19.154, 11.496-30.684, 30.667-30.684l 598,0 
				c 19.171,0, 30.667,11.513, 30.667,30.684L 653.848,673.333 C 653.848,692.504, 642.37,704, 623.182,704z M 607.848,29.333c0-9.586-5.748-15.351-15.351-15.351L 55.848,14 
				c-9.586,0-15.351,5.765-15.351,15.351L 40.515,642.684 c0,9.586, 5.765,15.333, 15.351,15.333l 536.667,0 c 9.603,0, 15.351-5.748, 15.351-15.333L 607.848,29.333 z" horiz-adv-x="648.381" data-tags="icons-26" />
<glyph unicode="&#x28;" d="M 486.215,704L 33.315,704 C 9.698,704,-4.438,689.864,-4.438,666.248l0-660.517 c0-23.574, 14.136-37.774, 37.752-37.774l 452.943,0 
				c 23.574,0, 37.752,14.157, 37.752,37.774L 523.989,666.248 C 523.967,689.864, 509.832,704, 486.215,704z M 467.36,43.483c0-11.798-7.079-18.876-18.855-18.876L 71.046,24.607 
				c-11.798,0-18.855,7.1-18.855,18.876L 52.191,628.538 c0,11.798, 7.079,18.876, 18.855,18.876l 377.438,0 c 11.798,0, 18.855-7.1, 18.855-18.876L 467.36,43.483 z
				 M 264.484,166.157c-23.465,0-42.472-19.006-42.472-42.45s 19.006-42.472, 42.472-42.472s 42.472,19.028, 42.472,42.472S 287.949,166.157, 264.484,166.157z" horiz-adv-x="519.529" data-tags="icons-25" />
<glyph unicode="&#x29;" d="M 472.126,707.522c-44.248,0-69.675-23.219-69.675-23.219S 193.48,498.551, 193.498,498.533l0-0.771 
				c-2.541,0.403-5.099,0.771-7.746,0.771L 46.438,498.533 c-25.655,0-46.438-20.801-46.438-46.438l0-224.462 c0-25.655, 20.801-46.438, 46.438-46.438l 139.297,0 
				c 2.646,0, 5.222,0.368, 7.746,0.771l0-0.771 L 402.469-12.303c0,0, 25.41-23.219, 69.675-23.219c 44.265,0, 61.929,20.801, 61.929,46.438L 534.073,661.084 
				C 534.073,686.704, 516.409,707.522, 472.126,707.522z M 487.618,49.608c0-38.219-2.891-38.693-38.71-38.693l-172.662,154.805l-71.427,61.912l-11.32,0 L 139.314,227.633 L 116.095,227.633 
				L 85.131,227.633 c-25.637,0-38.693,13.055-38.693,38.693l0,147.077 c0,9.603, 1.822,17.454, 5.485,23.517c 6.081,10.076, 17.173,15.176, 33.225,15.176l 30.982,0 
				l 77.403,0 l 11.969,0 l 56.392,47.717L 448.907,661.084c 35.819,0, 38.71,0, 38.71-38.71L 487.618,49.608 z M 703.388,326.782c 7.027,65.294-33.611,128.905-92.824,150.109
				c0,0-25.164,9.288-32.454-12.074c-7.5-28.757, 12.074-32.437, 12.074-32.437c 44.826-10.672, 72.075-53.64, 67.011-100.657
				c-3.557-32.962-26.706-58.424-54.464-71.97c 0.859-0.438-31.578-7.395-19.539-36.835c 6.957-18.856, 37.641-11.829, 37.641-11.829
				C 664.906,230.577, 697.851,275.455, 703.388,326.782z M 811.966,324.68c 5.678,113.326-58.985,213.948-157.644,255.9c0,0-20.748,9.2-31.315-6.186
				c-15.474-25.199, 5.783-39.043, 5.783-39.043c 83.589-33.47, 141.54-113.449, 136.791-208.376c-3.96-78.594-60.702-145.378-125.26-180.145
				c0,0-18.575-8.657-9.288-30.526c 8.674-17.384, 30.544-9.288, 30.544-9.288C 742.063,148.618, 807.094,227.633, 811.966,324.68z M 709.048,684.303
				c0,0-24.498,12.459-34.242-4.013c-10.83-18.453, 6.186-31.315, 6.186-31.315c 120.634-52.396, 207.902-180.968, 200.928-320.090
				c-6.291-125.278-85.902-235.906-192.534-284.814c0,0-23.762-9.813-17.033-30.158c 9.445-24.148, 38.272-9.673, 38.272-9.673
				c 122.597,55.638, 210.478,178.568, 217.681,322.315C 936.192,484.076, 844.788,623.478, 709.048,684.303z" horiz-adv-x="928.762" data-tags="icons-24" />
<glyph unicode="&#x2a;" d="M 855.019,409.968c0,0-418.784,273.753-434.821,284.251c-22.061,14.41-40.286,16.173-40.286,16.173L 146.077,710.643
				c0,0-30.718-0.271-40.015-14.526c-6.992-10.711-96.397-147.471-102.498-156.826c-9.316-14.255, 2.75-42.494, 2.75-42.494l 94.034-214.079
				c0,0, 9.084-16.115, 30.97-30.428c 19-12.435, 434.802-284.251, 434.802-284.251c 17.838-11.64, 35.502-7.96, 47.162,9.878l 251.635,384.909
				C 876.537,380.644, 872.819,398.328, 855.019,409.968z M 803.48,362.283L 589.129,34.395c-5.83-8.929-14.662-10.769-23.571-4.939
				c0,0-393.373,257.135-406.291,265.58s-16.715,21.112-16.715,21.112l-81.987,185.859c0,0-9.432,16.657-4.939,23.591
				C 60.139,532.512, 134.843,646.766, 139.511,653.913c 4.648,7.108, 23.571,4.939, 23.571,4.939l 203.117-0.523c0,0, 15.127,0.291, 26.051-6.837
				C 403.154,644.326, 798.541,385.835, 798.541,385.835C 807.431,380.024, 809.309,371.192, 803.48,362.283z M 341.388,557.362
				c-47.24,30.893-110.555,17.625-141.448-29.614c-30.912-47.259-17.625-110.574, 29.614-141.467s 110.555-17.625, 141.448,29.614S 388.627,526.45, 341.388,557.362z
				 M 349.619,429.879c-23.145-35.444-70.656-45.38-106.1-22.216s-45.38,70.656-22.196,106.1c 23.145,35.444, 70.637,45.38, 106.1,22.216
				C 362.829,512.776, 372.803,465.304, 349.619,429.879z" horiz-adv-x="871.579" data-tags="icons-23" />
<glyph unicode="&#x2b;" d="M 753.682,488.264c-15.684,0-31.753-5.415-46.228-9.358C 681.15,604.64, 575.64,701.424, 441.547,701.424
				c-116.901,0-216.034-72.934-258.844-175.098C 81.275,522.015,0,430.769,0,328.377c0-105.003, 92.631-182.721, 197.931-182.721l 175.098,0 l0,45.667 l-175.098,0 
				l0,0.228 c-1.332-0.053-2.611-0.228-3.925-0.228c-79.874,0-148.322,61.263-148.322,141.137c0,79.909, 61.053,148.216, 140.909,148.216
				c 9.112,0, 18.067-0.999, 26.811-2.681C 240.567,577.881, 334.827,655.757, 441.547,655.757c 126.767,0, 220.782-109.874, 220.782-235.993
				c0-5.502-0.263-10.952-0.631-16.297c 23.464,24.008, 55.971,39.183, 91.965,39.183c 71.497,0, 129.448-59.914, 129.448-129.974
				c0-70.043-57.934-121.265-129.413-121.3L 555.75,191.358 l0-45.667 L 753.682,145.691 c 97.187,0, 175.080,72.882, 175.080,167.493
				C 928.762,407.778, 850.869,488.264, 753.682,488.264z M 502.443,297.938l-76.123,0 l0-228.388 l-53.29,0 l 91.369-98.957l 91.369,98.957l-53.307,0 L 502.443,297.938 z" horiz-adv-x="928.762" data-tags="icons-22" />
<glyph unicode="&#x2c;" d="M 148.672,188.671L0,39.999l 67.988-67.988l 147.053,147.053C 189.98,139.157, 167.642,162.562, 148.672,188.671z M 431.498,699.989
				C 265.88,699.989, 135.019,569.128, 135.019,403.491c0-165.6, 130.861-304.483, 296.479-304.483s 304.502,138.883, 304.502,304.483
				C 736,569.128, 597.117,699.989, 431.498,699.989z M 431.498,147.087c-139.104,0-248.4,117.318-248.4,256.422c0,139.122, 109.296,248.4, 248.4,248.4
				s 256.422-109.278, 256.422-248.4C 687.902,264.406, 570.621,147.087, 431.498,147.087z" data-tags="icons-21" />
<glyph unicode="&#x2d;" d="M 393.217,83.009c 12.705,0, 22.991,10.286, 22.991,22.991l0,268.325 c0,12.705-10.286,22.991-22.991,22.991
				c-12.705,0-22.991-10.286-22.991-22.991l0-268.325 C 370.208,93.278, 380.494,83.009, 393.217,83.009z M 262.857,83.009
				c 12.705,0, 22.991,10.286, 22.991,22.991l0,268.325 c0,12.705-10.286,22.991-22.991,22.991s-22.991-10.286-22.991-22.991l0-268.325 
				C 239.866,93.278, 250.17,83.009, 262.857,83.009z M 132.533,83.009c 12.705,0, 22.991,10.286, 22.991,22.991l0,268.325 
				c0,12.705-10.286,22.991-22.991,22.991s-22.991-10.286-22.991-22.991l0-268.325 C 109.541,93.278, 119.828,83.009, 132.533,83.009z M 423.866,634.991
				c-4.048,0-12.827,0-30.667,0C 383.263,634.991, 357.486,704, 331.866,704c-29.545,0-108.069,0-138,0C 168.158,704, 142.241,634.991, 132.533,634.991
				c-25.094,0-34.89,0-38.325,0C 36.677,634.991,-5.467,592.846,-5.467,535.333l0-22.991 l0-498.342 c0-25.41, 20.608-46, 46-46l 444.667,0 
				c 25.41,0, 46,20.608, 46,46L 531.199,519.982 L 531.199,535.333 C 531.199,592.846, 481.397,634.991, 423.866,634.991z M 224.533,665.658c 11.25,0, 65.399,0, 76.667,0
				c 15.333,0, 19.89-30.667, 30.667-30.667c-8.657,0-128.905,0-138,0C 205.607,634.991, 209.199,665.658, 224.533,665.658z M 147.866,588.991l 222.342,0 
				c 73.67,0, 109.734-12.389, 114.413-76.667L 40.988,512.325 C 44.651,575.393, 72.969,588.991, 147.866,588.991z M 485.199,52.342c0-25.41-12.933-38.342-38.325-38.342
				L 78.875,14 c-25.392,0-38.325,12.933-38.325,38.342L 40.55,466.342 l 444.667,0 L 485.217,52.342 z" horiz-adv-x="525.714" data-tags="icons-20" />
<glyph unicode="&#x2e;" d="M 270.507,509.893c-38.739,0-70.153-31.415-70.153-70.153s 31.433-70.153, 70.153-70.153c 38.757,0, 70.171,31.415, 70.171,70.153
				S 309.282,509.893, 270.507,509.893z M 269.286,704C 111.441,704, 5.87,598.519, 5.87,440.584c0-175.365, 263.416-472.584, 263.416-472.584
				s 263.416,297.218, 263.416,472.584C 532.684,598.519, 427.131,704, 269.286,704z M 52.346,432.847c0,134.67, 82.27,224.677, 216.923,224.677
				s 216.923-90.007, 216.923-224.677c0-149.516-216.923-395.106-216.923-395.106S 52.346,283.331, 52.346,432.847z" horiz-adv-x="538.537" data-tags="icons-19" />
<glyph unicode="&#x2f;" d="M 160.43,161.676l 325.384,0 l0,46.476 L 160.43,208.151 L 160.43,161.676 z M 160.43,316.631l 325.384,0 l0,46.476 L 160.43,363.106 L 160.43,316.631 z M 160.43,479.305
				l 325.384,0 l0,46.476 L 160.43,525.78 L 160.43,479.305 z M 609.785,704L 36.477,704 C 17.108,704, 5.493,692.368, 5.493,672.998l0-673.996 c0-19.369, 11.614-31.002, 30.984-31.002l 573.29,0 
				c 19.387,0, 30.984,11.632, 30.984,31.002L 640.769,672.998 C 640.769,692.368, 629.154,704, 609.785,704z M 594.275,29.986c0-9.676-5.798-15.51-15.492-15.51L 67.479,14.476 
				c-9.676,0-15.51,5.816-15.51,15.51L 51.969,642.014 c0,9.694, 5.816,15.51, 15.51,15.51l 511.305,0 c 9.676,0, 15.492-5.798, 15.492-15.51L 594.275,29.986 z" horiz-adv-x="646.244" data-tags="icons-18" />
<glyph unicode="&#x30;" d="M 122.912,239.171l 278.908,0 l0,46.476 L 122.912,285.647 L 122.912,239.171 z M 634.235,595.521l-108.461,0 L 525.773,672.998 C 525.773,692.368, 514.159,704, 494.789,704
				L 29.943,704 C 10.573,704,-1.041,692.368,-1.041,672.998l0-573.29 c0-19.369, 11.614-30.984, 30.984-30.984l 108.461,0 l0-69.74 c0-19.369, 11.614-31.002, 30.984-31.002l 464.829,0 
				c 19.387,0, 30.984,11.632, 30.984,31.002L 665.218,564.555 C 665.218,583.906, 653.622,595.521, 634.235,595.521z M 60.944,115.2
				c-9.676,0-15.51,5.816-15.51,15.51L 45.435,642.014 c0,9.694, 5.816,15.51, 15.51,15.51l 402.843,0 c 9.676,0, 15.492-5.798, 15.492-15.51l0-511.305 
				c0-9.676-5.798-15.51-15.492-15.51L 60.944,115.2 z M 618.725,29.986c0-9.676-5.816-15.51-15.51-15.51L 208.126,14.476 
				c-9.676,0-15.492,5.816-15.492,15.51l0,38.739 L 494.789,68.724 c 19.369,0, 30.984,11.614, 30.984,30.984L 525.773,541.308 l 77.477,0 c 9.676,0, 15.51-5.798, 15.51-15.51
				L 618.743,29.986 z M 122.912,378.598l 278.908,0 l0,46.476 L 122.912,425.074 L 122.912,378.598 z M 122.912,518.061l 278.908,0 l0,46.476 L 122.912,564.537 L 122.912,518.061 z" horiz-adv-x="664.195" data-tags="icons-17" />
<glyph unicode="&#x31;" d="M 363.369,500.218c 7.665-15.259, 12.063-32.456, 12.063-50.694c0-53.225-36.692-97.78-86.13-110.059l0-26.334 
				c 57.193,5.87, 101.783,54.195, 101.783,112.913C 391.103,454.442, 380.602,480.31, 363.369,500.218z M 485.060,461.282C 485.060,595.323, 376.383,704, 242.324,704
				S-0.395,595.323,-0.395,461.282c0-123.451, 92.162-225.288, 211.412-240.654l0-159.479 c-69.148-3.77-109.61-20.482-109.61-46.153c0-29.368, 52.812-46.978, 140.917-46.978
				c 88.14,0, 148.78,17.61, 148.78,46.978c0,24.737-43.227,41.108-109.61,45.65l0,161.112 C 396.919,240.464, 485.060,340.542, 485.060,461.282z
				 M 242.324,265.524c-108.102,0-195.74,87.638-195.74,195.74S 134.239,657.022, 242.324,657.022s 195.74-87.638, 195.74-195.74
				S 350.444,265.524, 242.324,265.524z" horiz-adv-x="484.683" data-tags="icons-16" />
<glyph unicode="&#x32;" d="M 124.779,242.42c-21.559,0-39.008-17.467-39.008-39.008s 17.449-39.008, 39.008-39.008c 21.541,0, 38.99,17.467, 38.99,39.008
				S 146.32,242.42, 124.779,242.42z M 140.379,406.189l0-46.781 l 0.556,0 c 0.539-13.14, 1.544-26.173, 3.267-38.99L 116.988,320.418 C 52.382,320.4,0,268.037,0,203.43
				s 52.382-116.988, 116.988-116.988l 144.148,0 c 73.205-72.29, 173.732-116.988, 284.778-116.988c 218.718,0, 396.901,173.211, 405.105,389.918l 0.395,0 l0,46.781 L 140.379,406.171 z
				 M 545.897,16.271c-104.979,0-199.402,45.111-265.014,116.988L 116.988,133.259 c-38.757,0-70.189,31.433-70.189,70.189s 31.433,70.189, 70.189,70.189l 84.82,0 
				c-8.042,27.358-12.763,56.116-14.056,85.771l 716.505,0 C 896.071,168.533, 738.8,16.271, 545.897,16.271zM 475.707,546.568c-30.984,0-62.183,24.091-62.183,54.59l-0.215,0 L 413.309,624.548 
				l-46.781,0 l0-23.39 l 0.215,0 c0-56.313, 38.793-101.371, 108.982-101.371l 23.39,0 l0,46.781 L 475.707,546.568 zM 654.717,530.95c-3.716,55.523-46.565,93.58-101.029,93.58
				c-1.31,0-6.48,0.054-7.791,0c-31.002,0-54.59,24.108-54.59,54.59L 491.307,702.528 l-46.781,0 l0-23.39 c0-56.313, 44.537-101.371, 101.371-101.371
				c 1.31,0, 6.498-0.036, 7.791,0c 31.056,0, 54.59-22.636, 54.59-54.59l0-23.39 l 46.781,0 L 655.058,530.95 L 654.717,530.95 z" horiz-adv-x="951.415" data-tags="icons-15" />
<glyph unicode="&#x33;" d="M 723.194,328.722l0-296.444 c0-17.958-3.582-21.557-21.557-21.557L 148.345,10.721 
				c-17.975,0-21.557,3.598-21.557,21.557L 126.788,585.569 c0,17.958, 3.582,21.557, 21.557,21.557l 553.292,0 c 13.248,0, 19.986-0.785, 21.295-10.549l 38.926,38.926
				c-6.444,9.503-19.005,15.113-31.648,15.113L 112.412,650.256c-17.975,0-28.737-10.778-28.737-28.737l0-625.158 c0-17.958, 10.762-28.737, 28.737-28.737
				l 617.978,0 c 17.958,0, 35.917,17.958, 35.917,35.917L 766.307,371.835 L 723.194,328.722zM 486.054,226.303c0-0.442-40.186-86.717-122.16-79.030c-76.479,7.164, 80.437,245.023-87.339,245.023
				c-148.459,0-276.572-97.61-276.572-97.61l0-16.274 c0,0, 130.141,97.61, 276.572,97.61S 250.027,132.88, 363.911,132.88c 82.023,0, 121.702,64.686, 122.16,64.686
				C 508.969,230.343, 506.286,269.417, 486.054,226.303zM 798.347,606.93L 545.262,353.893c0,0-30.012-62.004-13.428-78.588c 17.86-17.877, 82.432,9.584, 82.432,9.584
				l 253.086,253.037L 798.347,606.93z" horiz-adv-x="964.978" data-tags="icons-14" />
<glyph unicode="&#x34;" d="M 815.398,334.51L 440.918,668.941L 76.831,334.51
				c0,0-20.518-48.253-20.518-58.054l0-290.451 c0-9.801, 13.733-23.552, 23.552-23.552l 730.004,0 c 9.819,0, 23.552,13.733, 23.552,23.552L 833.385,276.474 
				C 833.403,286.275, 815.398,334.51, 815.398,334.51z M 786.335,25.282c0-9.801-5.906-15.689-15.707-15.689L 574.385,9.593 L 574.385,252.922 
				c0,29.422-25.527,47.086-54.949,47.086l-141.294,0 c-29.44,0-54.949-17.664-54.949-47.086l0-243.329 L 119.106,9.593 c-9.801,0-15.707,13.733-15.707,23.552l0,227.639 
				c0,9.801, 26.747,53.908, 26.747,53.908L 440.918,621.837l 329.028-307.181c0,0, 16.389-36.244, 16.389-46.063L 786.335,25.282 z M 823.261,598.967l-106.63,0 l0-88.859 l 106.63-106.612
				L 823.261,598.967 zM 888.37,276.474L 472.35,692.475c-12.261,12.261-34.825,12.261-47.086,0
				L 9.209,276.474c-12.261-12.261-12.261-34.825,0-47.086c 12.261-12.261, 34.825-12.261, 47.086,0L 448.78,621.837L 841.266,229.352c 12.243-12.243, 34.825-12.243, 47.086,0
				C 900.613,241.595, 900.613,264.213, 888.37,276.474z" horiz-adv-x="897.561" data-tags="icons-13" />
<glyph unicode="&#x35;" d="M 1143.298,699.339L 38.763,699.339 C 14.519,699.339,0,684.797,0,660.576l0-649.152 c0-24.221, 14.519-38.763, 38.763-38.763l 1104.513,0 
				c 24.243,0, 38.763,14.542, 38.763,38.763L 1182.038,660.576 C 1182.061,684.797, 1167.541,699.339, 1143.298,699.339z M 1084.507,641.217l-503.179-397.239L 87.004,641.217L 1084.507,641.217 z
				 M 1123.917,50.187c0-12.111-7.271-19.359-19.359-19.359L 77.525,30.805 c-12.111,0-19.359,7.271-19.359,19.359L 58.144,591.37 l 523.207-415.238L 1123.917,606.759
				L 1123.917,50.187 z" horiz-adv-x="1182.061" data-tags="icons-12" />
<glyph unicode="&#x36;" d="M 224.703,423.919L 156.322,423.919 c-18.333,0-29.306-10.995-29.306-29.306s 10.995-29.306, 29.306-29.306l 68.381,0 
				c 18.333,0, 29.306,10.995, 29.306,29.306S 243.014,423.919, 224.703,423.919z M 1142.986,619.293c0,0-238.531,0-332.159,0
				C 771.105,619.293, 791.691,707.234, 742.468,707.234c-42.599,0-217.142,0-263.756,0c-42.889,0-24.422-87.941-68.381-87.941c-275.844,0-371.212,0-371.212,0
				C 14.631,619.293,0,604.662,0,580.218l0-576.377 c0-24.422, 14.631-39.075, 39.075-39.075l 1103.911,0 c 24.444,0, 39.075,14.653, 39.075,39.075L 1182.061,580.218 
				C 1182.061,604.662, 1167.43,619.293, 1142.986,619.293z M 1123.448,52.707c0-12.2-17.106-29.306-29.306-29.306L 78.15,23.401 
				c-12.2,0-19.56,7.315-19.56,19.537L 58.612,541.166 c0,12.2, 7.338,19.537, 19.56,19.537l 1025.739,0 c 12.2,0, 19.537-7.315, 19.537-19.537L 1123.426,52.707 z
				 M 611.036,491.564c-109.932,0-199.055-89.101-199.055-199.032c0-109.909, 89.123-199.032, 199.055-199.032c 109.932,0, 199.077,89.101, 199.077,199.032
				C 810.113,402.463, 720.99,491.564, 611.036,491.564z" horiz-adv-x="1182.061" data-tags="icons-11" />
<glyph unicode="&#x37;" d="M 85.771,390.608l0-46.781 c0,0, 366.384-210.568, 389.918-210.568c 23.552,0, 389.918,210.568, 389.918,210.568l0,46.781 
				c0,0-366.743-210.568-389.918-210.568C 451.419,180.040, 85.771,390.608, 85.771,390.608z M 920.197,476.379C 912.496,481.872, 533.079,702.528, 475.689,702.528
				c-57.372,0-427.957-215.127-444.508-226.149C 14.63,465.339,0,444.677,0,429.58l0-428.908 c0-19.495, 11.686-31.199, 31.199-31.199l 888.998,0 
				c 19.513,0, 31.217,11.704, 31.217,31.199L 951.415,429.58 C 951.415,442.469, 931.237,470.868, 920.197,476.379z M 904.616,31.852
				c0-9.748-5.852-15.582-15.6-15.582L 62.38,16.271 c-9.748,0-15.582,5.852-15.582,15.582L 46.781,421.789 c0,9.748, 23.39,23.39, 23.39,23.39
				S 430.452,655.747, 475.689,655.747s 407.977-212.794, 407.977-212.794s 20.931-11.399, 20.931-21.147L 904.616,31.852 z" horiz-adv-x="951.415" data-tags="icons-10" />
<glyph unicode="&#x38;" d="M 424.861,520.652c-51.394,0-93.093-41.658-93.093-93.051s 41.7-93.072, 93.093-93.072s 93.072,41.679, 93.072,93.072
				S 476.255,520.652, 424.861,520.652z M 1077.967,705.977L 36.569,705.977 C 13.711,705.977,0,692.266,0,669.429l0-666.858 c0-22.837, 13.711-36.548, 36.569-36.548l 1041.398,0 
				c 22.837,0, 36.548,13.711, 36.548,36.548L 1114.514,669.429 C 1114.514,692.266, 1100.825,705.977, 1077.967,705.977z M 1059.693,39.098c0-2.713-0.421-5.173-1.157-7.318
				c-68.133,69.983-294.884,299.678-336.836,299.678c-44.539,0-282.393-258.651-329.707-310.613l-41.531,0 c 21.933,25.886, 53.812,63.17, 90.044,104.407
				c-56.924,46.032-112.797,87.437-129.893,87.437c-31.333,0-187.007-139.041-243.973-190.897c-7.465,2.166-11.818,8.264-11.818,17.328L 54.821,632.881 
				c0,11.419, 6.876,18.253, 18.274,18.253l 968.345,0 c 11.419,0, 18.253-6.876, 18.253-18.253L 1059.714,39.098 z" horiz-adv-x="1114.514" data-tags="icons-09" />
<glyph unicode="&#x39;" d="M 488.686,304.693l-133.108,0 l0,133.108 c0,19.567-4.901,31.325-23.48,31.325c-13.212,0-23.48-3.967-23.48-31.325l0-148.78 
				c0-1.759, 0.162-3.375, 0.305-4.99c-0.108-0.933-0.305-1.831-0.305-2.818c0,0, 0.377-3.949, 2.8-8.599
				c 3.644-9.46, 10.771-14.882, 20.68-14.882c0,0, 0.844,0.126, 1.975,0.377c 1.831-0.233, 3.752-0.377, 5.852-0.377l 148.78,0 
				c 19.567,0, 31.343,4.901, 31.343,23.48C 520.011,294.407, 516.044,304.693, 488.686,304.693z M 596.214,504.203l 34.018,34.018
				c 7.001,6.983, 7.001,18.31,0,25.293l-50.587,50.587c-7.001,6.983-18.31,6.983-25.311,0l-35.938-35.938
				c-38.398,25.724-82.953,43.334-131.511,50.999L 386.885,672.675 l 31.325,0 c 15.941,0, 23.48,2.603, 23.48,15.653C 441.708,701.289, 432.409,704, 418.21,704l-172.26,0 
				c-13.445,0-23.48-2.19-23.48-15.653c0-13.948, 10.753-15.653, 23.48-15.653l 39.152,0 l0-42.329 C 122.571,608.553, 3.249,474.655, 3.249,304.693
				C 3.249,118.683, 146.087-32, 332.098-32s 328.848,150.7, 328.848,336.693C 660.946,380.645, 637.089,449.416, 596.214,504.203z M 332.098,14.978
				c-156.66,0-281.87,133.090-281.87,289.715c0,156.606, 125.21,281.87, 281.87,281.87c 156.642,0, 281.852-125.264, 281.852-281.87
				C 613.968,148.069, 488.74,14.978, 332.098,14.978z" horiz-adv-x="664.195" data-tags="icons-08" />
<glyph unicode="&#x3a;" d="M 322.368,705.544C 146.069,705.544,0,586.132,0,438.214
				c0-129.428, 114.026-234.497, 259.485-259.485l0-172.996 c0,0, 377.424,225.27, 377.424,440.325C 636.891,614.262, 498.685,705.544, 322.368,705.544z M 306.661,100.103
				l0,117.94 C 185.454,238.345, 55.038,311.443, 55.038,438.214C 55.038,558.38, 175.437,658.368, 322.368,658.368s 259.485-75.826, 259.485-212.291
				C 581.853,284.049, 306.661,100.103, 306.661,100.103z M 691.93,532.548c-5.708,0-11.309-0.413-16.928-0.718c 5.744-26.352, 9.065-54.751, 9.065-85.789
				c0-105.212-80.619-213.027-173.427-302.388l 236.346-177.268l0,133.665 c 121.673,20.482, 204.446,106.146, 204.446,212.291
				C 951.415,433.726, 839.417,532.548, 691.93,532.548z" horiz-adv-x="951.415" data-tags="icons-07" />
<glyph unicode="&#x3b;" d="M 353.747,622.107c 20.734-44.914, 36.549-80.278, 65.324-110.185c 28.812-29.907, 97.978-37.536, 121.727-5.314
				s-19.513,111.998-45.327,137.327c-25.832,25.347-43.047,48.145-105.338,55.936s-138.099-45.309-138.099-45.309S 333.013,667.003, 353.747,622.107z
				 M 871.316,337.328c0-22.421-6.75-45.488-18.615-68.43c 10.914-14.594, 22.026-29.476, 33.174-44.519c 19.908,34.879, 31.576,72.2, 31.576,111.154
				c0,134.132-76.795,302.029-366.923,312.71c 11.004-13.804, 22.421-30.768, 32.653-49.222C 821.268,575.703, 871.316,418.647, 871.316,337.328z
				 M 443.036,18.084c-143.071,0, 105.445,272.535-101.227,272.535c-160.268,0-187.303-136.411-236.597-150.934c-91.623-13.086-43.514,139.14-35.256,158.635
				C 85.035,334.007, 166.498,486.18, 328.759,560.677c-6.875,12.799-13.607,26.263-20.5,40.265C 122.966,514.022, 15.456,332.841, 5.744,265.254
				c-14.54-63.081-7.27-189.224, 90.851-175.204c 98.139,14.020, 114.798,161.633, 245.214,161.633c 128.962,0-126.538-280.326, 101.227-280.326
				c 89.559,0, 236.471,54.554, 343.156,140.738c-13.23,12.62-26.352,25.186-39.241,37.59C 652.15,74.271, 524.427,18.084, 443.036,18.084z
				 M 639.997,462.52c0,0-28.363,43.083-71.697,0c-38.811-38.631,0-71.302,0-71.302s 364.482-374.373, 382.397-356.547
				C 968.612,52.496, 639.997,462.52, 639.997,462.52z" horiz-adv-x="951.415" data-tags="icons-06" />
<glyph unicode="&#x3c;" d="M 559.001,339.949l0,15.761 c0,0, 55.11,103.83, 55.11,181.074
				C 614.111,603.707, 587.113,702.115, 456.661,702.115c-130.469,0-165.331-91.874-165.331-165.331c0-79.129, 55.11-181.074, 55.11-181.074s0-15.653,0-15.761
				C 178.794,291.876,0,156.883,0,103.729c0,0.341,0-62.991,0-62.991s-0.646-22.978, 23.624-47.23c 24.27-24.27, 78.734-23.624, 78.734-23.624L 456.661-30.115 
				l 330.679,0 c0,0, 63.493,0.503, 86.615,23.624c 23.121,23.139, 23.624,47.23, 23.624,47.23s0,62.56,0,62.991
				C 897.561,163.13, 715.159,291.714, 559.001,339.949z M 850.331,64.38c0-63.709-103.614-47.23-181.092-47.23L 228.34,17.15 
				c-77.477,0-181.092-16.443-181.092,47.23l0,39.349 c 33.569,73.51, 268.981,195.579, 346.441,204.716l0,62.991 c-35.059,37.5-55.11,102.86-55.11,165.331
				c0,92.754, 53.89,118.101, 118.101,118.101c 64.212,0, 110.22-25.347, 110.22-118.101c0-62.434-20.069-127.813-55.11-165.331l0-62.991 
				c 76.293-18.813, 306.643-134.85, 338.56-204.716L 850.349,64.38 zM 566.882,229.711c0,0-102.34-110.22-110.22-110.22c-7.881,0-119.106,111.639-119.106,111.639l-14.756-17.143
				c0,0, 125.317-133.844, 133.862-133.844s 125.964,133.844, 125.964,133.844L 566.882,229.711z" horiz-adv-x="897.561" data-tags="icons-05" />
<glyph unicode="&#x3d;" d="M 546.579,306.668l-133.755,0 l0,133.755 c0,19.657-4.919,31.468-23.606,31.468c-13.266,0-23.606-3.985-23.606-31.468l0-149.498 
				c0-1.759, 0.162-3.393, 0.305-5.026c-0.108-0.951-0.305-1.831-0.305-2.836c0,0, 0.413-3.77, 2.693-8.293
				c 3.626-9.73, 10.843-15.294, 20.913-15.294c0,0, 1.095,0.108, 2.729,0.539c 1.705-0.18, 3.213-0.539, 5.134-0.539l 149.498,0 
				c 19.657,0, 31.486,4.919, 31.486,23.606C 578.065,296.328, 574.062,306.668, 546.579,306.668z M 268.048,640.65
				c-3.357,13.068-10.124,25.491-20.446,35.813C 216.958,707.106, 175.94,714.968, 145.297,684.325L 27.268,566.332c-30.643-30.643-38.487-79.542-7.863-110.149
				c 12.297-12.315, 28.848-19.585, 46.188-21.99C 100.742,528.383, 174.719,603.635, 268.048,640.65z M 766.894,566.332l-110.149,110.149
				c-30.625,30.607-79.56,30.607-110.167,0c-9.927-9.927-16.569-21.775-20.052-34.287c 94.549-36.208, 169.675-111.531, 205.613-206.206
				c 12.709,3.447, 24.719,10.124, 34.754,20.159C 797.501,486.772, 797.501,535.707, 766.894,566.332z M 436.43,642.768L 436.43,684.325 
				c0,9.837-5.888,15.743-15.743,15.743l-39.331,0 c-9.855,0-15.743-5.906-15.743-15.743l0-40.839 C 193.442,627.618, 58.772,482.949, 58.772,306.668
				c0-82.576, 29.566-158.204, 78.698-216.923l-47.23-74.21c-7.432-12.494-4.972-32.133, 7.863-39.331c 12.853-7.216, 32.923-2.657, 39.349,7.863
				l 41.019,64.463c 58.952-49.994, 135.227-80.188, 218.61-80.188c 85.609,0, 163.697,33.479, 223.259,87.638l 48.163-76.293
				c 6.391-10.555, 26.37-15.115, 39.17-7.899c 12.781,7.234, 15.205,26.945, 7.827,39.475L 660.695,98.11c-0.144,0.233-0.359,0.395-0.485,0.628
				c 47.032,59.76, 75.216,135.191, 75.216,215.792C 735.426,488.101, 604.795,624.243, 436.43,642.768z M 397.081,15.535
				c-157.414,0-291.133,133.737-291.133,291.133c0,157.378, 133.719,291.115, 291.133,291.115c 157.432,0, 291.151-125.874, 291.133-283.252
				C 688.196,157.206, 554.495,15.553, 397.081,15.535z" horiz-adv-x="789.854" data-tags="icons-04" />
<glyph unicode="&#x3e;" d="M 471.482,140.114l 31.979,0 L 503.479,515.915 l-31.979,0 L 471.482,140.114 z M 719.366,703.798C 556.784,703.798, 488.759,615.128, 488.759,615.128
				S 416.87,703.798, 255.613,703.798S0,578.917,0,578.917l0-579.158 c0-19.982, 15.53-31.574, 31.74-31.574c 87.842,0, 69.313,87.952, 223.873,87.952
				s 197.929-87.952, 231.877-87.952s 77.298,87.952, 231.877,87.952s 135.976-87.952, 223.873-87.952c 18.106,0, 31.979,11.997, 31.979,31.979L 975.218,575.881 
				C 975.2,575.881, 919.926,703.798, 719.366,703.798z M 927.231,32.179c0-9.991-5.998-15.99-15.99-15.99c0,0-46.644,87.952-191.912,87.952
				c-161.239,0-230.589-86.278-230.589-86.278s-71.65,86.278-233.146,86.278c-148.194,0-191.894-87.952-191.894-87.952
				c-9.991,0-16.008,6.017-16.008,15.99L 47.73,559.873 c0,0, 75.385,95.956, 207.883,95.956c 173.622,0, 196.935-95.018, 233.146-95.018S 552.791,655.829, 719.366,655.829
				c 159.896,0, 207.865-95.956, 207.865-95.956L 927.231,32.179 z" horiz-adv-x="975.2" data-tags="icons-03" />
<glyph unicode="&#x3f;" d="M 419.111,701.608C 186.188,701.608,0,559.437,0,382.675c0-104.778, 52.665-198.332, 155.235-256.68l-38.804-155.582
				c0,0, 280.375,71.78, 380.308,101.118c 199.906,48.044, 341.524,154.131, 341.524,311.164C 838.222,559.437, 652.035,701.608, 419.111,701.608z M 481.201,118.205
				c-146.076-40.725-302.7-85.58-302.7-85.58l 38.804,116.676c-85.458,48.658-162.983,134.381-162.983,233.373c0,147.302, 170.691,272.259, 364.77,272.259
				s 372.539-124.936, 372.539-272.259C 791.67,251.83, 625.068,146.807, 481.201,118.205z" horiz-adv-x="838.222" data-tags="icons-02" />
<glyph unicode="&#x40;" d="M 628.005,18.461L 327.843,18.461 c-14.63,0-26.478-11.848-26.478-26.478c0-14.63, 11.866-26.478, 26.478-26.478l 300.144,0 
				c 14.63,0, 26.478,11.848, 26.478,26.478C 654.484,6.595, 642.636,18.461, 628.005,18.461z M 920.215,706.495L 31.199,706.495 C 11.686,706.495,0,694.791,0,675.296l0-569.287 
				c0-19.495, 19.495-31.199, 38.99-31.199l 881.225,0 c 19.513,0, 31.199,11.704, 31.199,31.199L 951.397,675.296 C 951.415,694.791, 939.728,706.495, 920.215,706.495z M 904.616,137.226
				c0-9.748-5.87-15.6-15.582-15.6L 62.398,121.609 c-9.748,0-15.582,5.87-15.582,15.6L 46.799,644.097 c0,9.748, 5.852,15.582, 15.582,15.582l 826.636,0 
				c 9.748,0, 15.582-5.852, 15.582-15.582L 904.616,137.226 z" horiz-adv-x="951.415" data-tags="icons-01" />
<glyph unicode="&#xdf;" d="M 379.98,332.034L 380.471,332.524L 19.545,693.532L 5.806,679.794L 353.771,331.788L 12.757-9.225L 26.496-22.923L 380.757,331.257 
	z" horiz-adv-x="408.889" data-tags="arrow_right" />
<glyph unicode="&#x66;" d="M 376.096,690.139L 362.030,704.245L -8.832,333.383L -8.341,332.892L -9.118,332.116L 354.834-31.796L 368.981-17.648L 18.604,332.647 
	z" horiz-adv-x="368" data-tags="arrow_left" />
<glyph unicode="&#x20;" horiz-adv-x="368" />
</font>
</defs>
</svg>
